<?xml version="1.0" encoding="utf-8"?>
<!-- Generator: Adobe Illustrator 16.0.0, SVG Export Plug-In . SVG Version: 6.00 Build 0)  -->
<!DOCTYPE svg PUBLIC "-//W3C//DTD SVG 1.1//EN" "http://www.w3.org/Graphics/SVG/1.1/DTD/svg11.dtd">
<svg version="1.1" id="Layer_1" xmlns="http://www.w3.org/2000/svg" xmlns:xlink="http://www.w3.org/1999/xlink" x="0px" y="0px"
	 width="394px" height="271px" viewBox="202.5 114 394 271" enable-background="new 202.5 114 394 271" xml:space="preserve">
<path d="M484.602,217.812C485.132,217.497,484.278,216.732,484.602,217.812c2.531-1.502,4.838-3.35,7.23-5.064
	c2.441-1.748,4.929-3.43,7.447-5.064c4.966-3.224,10.045-6.271,15.133-9.297c5.166-3.071,10.38-6.059,15.694-8.866
	c5.349-2.825,10.745-5.56,16.153-8.271c5.381-2.696,10.741-5.444,16.155-8.073c0.62-0.3,1.198-0.723,1.831-0.984
	c0.487-0.201,1.089-0.124,1.356,0.38c0.543,1.022-1.241,1.99-1.899,2.452c-1.096,0.768-2.294,1.16-3.534,1.619
	c-1.34,0.495-2.589,1.214-3.873,1.834c-5.427,2.624-10.796,5.365-16.227,7.98c-2.647,1.275-5.248,2.616-7.803,4.067
	c-2.587,1.468-5.268,2.76-7.861,4.215c-2.541,1.426-4.979,3.025-7.498,4.49c-2.593,1.508-5.219,2.957-7.779,4.52
	c-5.08,3.1-10.033,6.411-14.945,9.77c-4.895,3.347-9.587,6.974-14.276,10.6c-2.299,1.777-4.615,3.541-6.797,5.465
	c-2.143,1.891-4.105,3.979-6.318,5.79c-2.265,1.853-4.441,3.747-6.521,5.81c-2.118,2.1-4.358,4.135-6.325,6.379
	c-0.932,1.062-1.826,2.141-2.814,3.154c-1.033,1.061-2.08,2.107-3.105,3.176c-2.028,2.114-3.763,4.479-5.818,6.565
	c-1.034,1.051-2.096,2.072-3.056,3.192c-0.937,1.093-1.831,2.22-2.79,3.294c-0.942,1.056-1.913,2.086-2.853,3.144
	c-0.928,1.044-1.762,2.17-2.714,3.189c-0.946,1.014-1.948,1.972-2.856,3.021c-0.934,1.081-1.805,2.215-2.701,3.326
	c-0.873,1.083-1.774,2.117-2.797,3.063c-1.014,0.941-1.889,1.967-2.766,3.034c-0.912,1.11-1.746,2.278-2.646,3.399
	c-0.913,1.138-1.903,2.207-2.886,3.284c-2.013,2.207-4.007,4.431-5.978,6.677c-3.938,4.489-7.924,8.921-12.121,13.171
	c-2.082,2.107-4.153,4.226-6.245,6.322c-2.07,2.075-4.367,3.918-6.482,5.95c-2.151,2.067-4.294,4.147-6.554,6.098
	c-2.228,1.922-4.54,3.742-6.778,5.651c-4.501,3.836-9.077,7.528-13.934,10.908c-2.34,1.629-4.729,3.186-7.182,4.639
	c-2.466,1.461-5.011,2.749-7.562,4.05c-2.613,1.333-5.226,2.591-7.957,3.669c-2.779,1.097-5.575,2.157-8.398,3.139
	c-5.514,1.916-11.136,3.395-16.91,4.267c-2.992,0.451-6.004,0.815-9.025,0.999c-2.997,0.182-5.998,0.171-8.999,0.23
	c-2.983,0.061-5.926-0.505-8.893-0.746c-3.001-0.244-5.924-0.729-8.851-1.434c-2.912-0.701-5.786-1.547-8.67-2.354
	c-2.819-0.789-5.609-1.621-8.302-2.781c-2.674-1.151-5.234-2.529-7.854-3.794c-2.645-1.276-5.101-2.749-7.511-4.423
	c-2.33-1.617-4.595-3.335-6.601-5.348c-1.007-1.011-1.95-2.082-2.951-3.099c-0.995-1.01-1.999-2.011-2.923-3.088
	c-3.581-4.179-6.158-9.076-8.842-13.848c-0.351-0.624-0.72-1.231-0.961-1.907c-0.227-0.634-0.413-1.284-0.614-1.927
	c-0.436-1.405-0.894-2.802-1.345-4.201c-0.893-2.768-1.671-5.587-1.919-8.494c-0.125-1.465-0.229-2.928-0.375-4.391
	c-0.149-1.485-0.23-2.961-0.134-4.452c0.094-1.461,0.17-2.936,0.318-4.392c0.15-1.462,0.632-2.792,1.012-4.201
	c0.752-2.778,1.264-5.6,2.268-8.309c0.982-2.647,2.364-5.02,3.755-7.464c1.425-2.507,2.837-4.976,4.587-7.275
	c1.727-2.27,3.623-4.403,5.612-6.444c3.89-3.987,8.181-7.635,12.916-10.583c4.744-2.954,9.909-5.226,15.207-6.983
	c5.524-1.833,11.257-3.015,17.082-3.241c3.046-0.117,6.077,0.053,9.119,0.191c1.498,0.067,3,0.077,4.497,0.169
	c1.489,0.091,2.974,0.278,4.453,0.457c2.952,0.354,5.903,0.778,8.803,1.443c2.878,0.659,5.713,1.515,8.518,2.436
	c2.76,0.906,5.346,2.224,7.985,3.426c2.64,1.203,5.252,2.459,7.752,3.936c2.485,1.469,4.799,3.17,7.042,4.983
	c2.18,1.763,4.428,3.507,6.419,5.484c0.958,0.95,1.85,1.972,2.612,3.087c0.81,1.183,1.499,2.442,2.227,3.677
	c1.458,2.471,2.884,4.987,4.049,7.611c2.371,5.341,3.241,11.337,3.07,17.145c-0.085,2.906-0.33,5.795-1.166,8.592
	c-0.804,2.688-1.898,5.33-3.078,7.873c-2.327,5.011-5.915,9.5-10.036,13.161c-1.026,0.913-2.114,1.792-3.293,2.502
	c-1.199,0.722-2.443,1.373-3.653,2.076c-2.521,1.469-5.349,2.337-8.086,3.308c-0.701,0.249-1.376,0.572-2.115,0.686
	c-0.678,0.104-1.351,0.193-2.021,0.334c-1.445,0.304-2.873,0.689-4.346,0.838c-1.477,0.15-2.963,0.192-4.442,0.318
	c-1.51,0.129-3.02,0.273-4.532,0.378c-5.947,0.409-12.079-0.068-17.905-1.331c-2.887-0.626-5.734-1.479-8.549-2.37
	c-2.77-0.879-5.53-1.839-8.191-3.009c-2.63-1.156-5.04-2.63-7.338-4.349c-1.122-0.839-2.261-1.681-3.307-2.612
	c-1.045-0.931-1.992-1.963-2.952-2.979c-1.898-2.008-3.568-4.132-4.757-6.642c-1.183-2.496-1.887-5.205-2.159-7.951
	c-0.535-5.399,0.339-11.291,3.186-15.97c1.448-2.378,3.306-4.517,5.208-6.54c1.978-2.104,4.388-3.626,6.789-5.194
	c2.346-1.531,4.856-2.533,7.529-3.339c2.739-0.827,5.488-1.474,8.352-1.672c5.711-0.395,11.538,0.798,16.721,3.21
	c2.656,1.236,4.989,2.979,7.404,4.619c2.246,1.525,4.096,3.515,5.797,5.615c1.704,2.105,3.103,4.469,3.861,7.082
	c0.396,1.366,0.682,2.771,0.961,4.165c0.281,1.399,0.353,2.738,0.126,4.151c-0.419,2.616-1.46,5.138-3.064,7.25
	c-1.569,2.064-3.626,3.803-5.764,5.255c-2.19,1.486-4.658,2.505-7.287,2.865c-0.609,0.084-1.393,0.27-1.995,0.084
	c-0.503-0.155-0.926-0.687-0.556-1.174c0.43-0.564,1.07-0.38,1.686-0.475c0.629-0.097,1.251-0.188,1.867-0.35
	c2.548-0.67,4.953-2.062,6.963-3.746c1.968-1.648,3.829-3.731,4.953-6.055c2.336-4.828,1.095-10.975-1.475-15.466
	c-2.584-4.519-6.775-8.045-11.239-10.614c-2.272-1.307-4.683-2.444-7.16-3.304c-2.784-0.967-5.671-1.17-8.597-1.26
	c-2.925-0.091-5.828,0.076-8.647,0.911c-1.391,0.412-2.729,0.974-4.125,1.369c-1.383,0.392-2.655,0.871-3.897,1.603
	c-4.74,2.789-9.422,6.433-12.252,11.238c-1.416,2.406-2.32,5.091-2.912,7.811c-0.632,2.906-0.721,5.778-0.175,8.704
	c0.519,2.774,1.36,5.368,2.82,7.798c1.399,2.33,3.161,4.453,5.075,6.377c4.026,4.046,9.008,6.864,14.235,9.074
	c5.43,2.296,11.273,3.709,17.069,4.724c5.977,1.047,11.97,1.086,17.997,0.482c2.982-0.298,5.956-0.7,8.901-1.248
	c2.881-0.536,5.592-1.553,8.273-2.719c4.742-2.063,9.142-4.812,12.597-8.71c0.88-0.992,1.681-2.052,2.501-3.094
	c0.854-1.085,1.693-2.183,2.44-3.344c0.76-1.179,1.357-2.417,1.88-3.717c0.536-1.333,1.11-2.647,1.659-3.974
	c2.144-5.177,2.67-10.744,2.077-16.29c-0.301-2.809-0.81-5.634-1.627-8.34c-0.823-2.723-1.997-5.392-3.357-7.889
	c-1.366-2.509-3.041-4.864-4.811-7.104c-1.699-2.149-3.549-4.16-5.698-5.87c-2.238-1.78-4.63-3.442-7.019-5.017
	c-2.414-1.591-4.983-2.892-7.573-4.168c-2.635-1.3-5.296-2.521-8.03-3.602c-2.701-1.067-5.469-1.835-8.295-2.495
	c-2.876-0.672-5.755-1.366-8.677-1.81c-2.995-0.454-6.026-0.619-9.047-0.827c-2.977-0.204-5.965-0.435-8.944-0.177
	c-2.983,0.257-5.993,0.492-8.948,0.988c-2.882,0.482-5.655,1.382-8.413,2.325c-2.759,0.942-5.525,1.884-8.173,3.11
	c-4.928,2.285-9.68,5.149-13.803,8.697c-4.386,3.772-8.284,8.105-11.626,12.82c-3.302,4.659-6.208,9.711-8.066,15.133
	c-0.479,1.399-0.845,2.835-1.198,4.269c-0.349,1.418-0.507,2.85-0.794,4.277c-0.292,1.453-0.568,2.842-0.651,4.325
	c-0.082,1.5-0.206,3.002-0.22,4.504c-0.059,5.907,1.649,11.669,3.559,17.194c1.857,5.369,4.921,10.322,8.314,14.855
	c3.26,4.353,7.011,8.331,11.258,11.732c4.406,3.527,9.364,6.247,14.423,8.711c2.583,1.259,5.199,2.45,7.937,3.335
	c2.848,0.92,5.752,1.707,8.632,2.519c5.636,1.588,11.412,2.29,17.247,2.613c3.018,0.167,6.042,0.256,9.06,0.062
	c3.01-0.192,6.011-0.592,9.003-0.968c2.978-0.375,5.953-0.775,8.889-1.41c2.935-0.634,5.815-1.499,8.668-2.43
	c2.81-0.915,5.632-1.829,8.352-2.99c2.738-1.168,5.473-2.373,8.163-3.647c5.21-2.467,10.091-5.553,14.842-8.801
	c2.458-1.681,4.915-3.366,7.286-5.168c2.354-1.79,4.59-3.728,6.821-5.667c4.498-3.907,9.114-7.661,13.448-11.754
	c2.193-2.071,4.36-4.171,6.54-6.258c2.154-2.062,4.339-4.095,6.437-6.216c4.174-4.22,8.19-8.641,12.066-13.137
	c3.961-4.596,7.965-9.152,11.971-13.71c4.021-4.573,8.095-9.101,12.1-13.689c3.973-4.552,7.962-9.09,12.069-13.521
	c7.906-8.514,15.854-17.03,24.642-24.65c2.28-1.977,4.602-3.905,6.894-5.866c1.135-0.97,2.28-1.921,3.456-2.841
	c1.02-0.799,2.011-1.608,2.69-2.732c0.372-0.617,0.615-1.298,0.941-1.938c0.32-0.631,0.697-1.233,1.061-1.84
	c0.731-1.224,1.36-2.504,2.053-3.75c1.462-2.627,3.035-5.188,4.547-7.786c2.946-5.066,5.427-10.365,7.253-15.94
	c0.898-2.742,1.148-5.631,1.241-8.499c0.049-1.512,0.171-3.021,0.241-4.531c0.071-1.491-0.017-2.983,0.062-4.475
	c0.307-5.904-0.796-11.785-2.265-17.478c-0.371-1.439-0.804-2.86-1.239-4.281c-0.227-0.74-0.454-1.479-0.672-2.222
	c-0.14-0.479-0.361-1.057-0.157-1.549c0.242-0.585,0.862-0.585,1.332-0.287c0.445,0.283,0.691,0.72,0.856,1.208
	c0.452,1.339,0.776,2.725,1.104,4.099c0.343,1.433,0.771,2.837,1.173,4.254c0.396,1.395,0.622,2.81,0.805,4.245
	c0.376,2.957,0.863,5.911,0.997,8.894c0.137,3.038,0.044,6.09-0.006,9.129c-0.048,2.935-0.236,5.858-0.877,8.731
	c-0.316,1.422-0.663,2.847-1.067,4.247c-0.41,1.415-0.927,2.794-1.379,4.195c-0.221,0.683-0.381,1.324-0.719,1.965
	c-0.315,0.594-0.611,1.197-0.908,1.801c-0.655,1.329-1.324,2.651-2.025,3.957c-1.419,2.643-2.938,5.231-4.487,7.8
	c-0.754,1.249-1.469,2.521-2.226,3.769C485.249,215.452,484.218,216.531,484.602,217.812L484.602,217.812z"/>
</svg>
