<svg enable-background="new 0 0 792 146.992" height="146.992" viewBox="0 0 792 146.992" width="792" xmlns="http://www.w3.org/2000/svg"><g clip-rule="evenodd" fill-rule="evenodd"><path d="m313.193 62.244c.174.43.291.705.397.985.446 1.183.384 2.326-.09 3.515-1.006 2.521-1.831 5.104-2.487 7.738-.416 1.671-.786 3.354-1.254 5.011-.374 1.323-.782 2.648-1.322 3.909-1.388 3.25-2.62 6.556-3.82 9.876-.146.404-.301.806-.469 1.203-.381.892-.924 1.653-1.8 2.127-.482.261-.773.635-.909 1.183-.219.896-.84 1.491-1.64 1.893-.811.406-1.583.821-2.142 1.595-.229.316-.697.492-1.089.65-.716.289-1.455.524-2.189.769-.617.206-1.201.186-1.635-.379-.234-.307-.531-.409-.897-.407-1.245.011-2.121-.633-2.764-1.629-.84-1.302-1.686-2.604-2.456-3.947-.402-.703-.718-1.476-.948-2.253-1.213-4.098-2.066-8.266-2.335-12.543-.06-.945-.142-1.89-.222-2.833-.024-.29-.149-.494-.556-.429-.705 1.033-1.334 2.159-1.762 3.376-.733 2.084-1.759 4.019-2.827 5.939-.774 1.393-1.52 2.801-2.282 4.199-.893 1.638-1.501 3.369-1.888 5.198-.221 1.046-.592 2.065-.965 3.071-.176.474-.488.907-.79 1.322-.417.574-.992.761-1.707.634-1.815-.321-3.031-2.171-2.634-4.081.078-.377.223-.741.359-1.104 1.228-3.264 2.401-6.549 3.942-9.686.091-.188.144-.395.215-.593-.431-.208-.801-.041-1.176.029-1.777.328-3.553.668-5.334.981-.506.089-1.027.138-1.541.138-1.916.002-3.754.479-5.596.91-1.009.235-1.244.657-1.178 1.68.043.686.069 1.374.059 2.061-.03 1.981-.097 3.962-.12 5.943-.012 1.036-.379 1.931-.947 2.765-.284.417-.676.674-1.19.656-.47-.018-.955-.021-1.403-.14-.999-.265-1.66-.884-1.786-1.965-.021-.172-.076-.339-.089-.509-.081-1.029.035-2.061.022-3.082-.012-.989-.104-1.968.089-2.951.108-.548.178-1.106.235-1.662.062-.599.123-1.206-.213-1.76-.452-.314-.923-.127-1.375-.037-1.773.355-3.541.734-5.311 1.101-1.053.219-2.113.409-3.16.652-1.682.392-3.068 1.256-4.269 2.518-2.465 2.59-4.976 5.135-7.514 7.652-1.984 1.969-3.473 4.27-4.758 6.721-.339.646-.596 1.335-.876 2.011-.477 1.146-1.321 1.793-2.566 1.836-1.304.047-2.218-.655-2.821-1.724-.214-.377-.264-.934-.184-1.371.129-.71.366-1.417.667-2.076.612-1.343 1.502-2.515 2.507-3.586 1.622-1.727 3.274-3.425 4.917-5.132.657-.683 1.321-1.358 1.985-2.035.435-.443.561-.938.321-1.534-.143-.356-.265-.731-.325-1.11-.227-1.417.269-2.546 1.466-3.332.428-.281.912-.483 1.384-.688 1.342-.582 2.688-1.161 4.04-1.719 1.262-.521 2.303-1.331 3.207-2.341 1.466-1.638 2.866-3.33 4.122-5.137.958-1.379 1.881-2.783 2.842-4.16 1.232-1.767 2.504-3.504 3.727-5.276.979-1.416 1.909-2.865 2.862-4.3.906-1.361 1.793-2.737 2.732-4.075.368-.524.823-1.001 1.299-1.432.597-.544 1.162-.434 1.611.258.375.576.759 1.151 1.081 1.758.536 1.012.768 2.112.64 3.248-.336 2.995-.723 5.984-1.073 8.979-.23 1.967-.44 3.937-.643 5.907-.039.375-.006.759-.006 1.195.336.041.627.105.918.105 1.55 0 3.101-.022 4.651-.022.732.001 1.463.022 2.195.057.825.038 1.639.006 2.418-.293.67-.258 1.351-.236 2.037-.122.552.092 1.099.218 1.651.306.338.054.684.09 1.026.092.804.006 1.429-.344 1.773-1.074 1.243-2.644 2.753-5.166 3.513-8.03.465-1.749 1.162-3.418 2.055-5.006.335-.595.538-1.265.812-1.895.223-.511.414-1.047.707-1.516.659-1.055 1.668-1.438 2.881-1.344.615.047 1.044.369 1.295.925.088.194.167.399.208.609.366 1.857.774 3.71 1.065 5.58.305 1.955.529 3.926.721 5.896.229 2.36.523 4.707 1.054 7.02.502 2.188.774 4.408 1.049 6.631.188 1.53.766 2.909 1.779 4.085.251.293.524.574.824.816.811.654 1.752.713 2.632.162.289-.183.547-.419.801-.651 1.647-1.517 2.815-3.349 3.614-5.436.631-1.648 1.292-3.284 1.977-4.909.62-1.474 1.098-2.989 1.507-4.529.321-1.208.65-2.401 1.199-3.538.353-.731.549-1.539.798-2.317.421-1.312.806-2.634 1.25-3.938.365-1.075.542-2.165.515-3.299-.029-1.2.36-2.286.997-3.29.596-.939 1.405-1.495 2.574-1.395.682.059 1.365.095 2.109.146zm-67.044 22.088c.79.356.837.366 1.655.259 1.15-.152 2.299-.311 3.448-.466.791-.106.983-.315 1.125-1.148.193-1.144.363-2.293.612-3.424.287-1.308.439-2.626.536-3.955.009-.127.032-.271-.014-.38-.044-.105-.157-.216-.263-.253-.104-.036-.289-.025-.349.044-.224.256-.431.532-.611.823-1.246 2.016-2.676 3.895-4.185 5.718-.438.53-.877 1.061-1.299 1.604-.261.332-.581.638-.655 1.178z"/><path d="m502.004 93.298c-.42-.536-.938-.911-1.516-1.208-2.245-1.153-4.598-1.957-7.14-2.072-2.029-.092-4.019-.464-6.019-.769-1.149-.176-2.305-.33-3.462-.417-2.921-.219-5.845-.394-8.768-.586-1.741-.114-3.423-.42-4.871-1.491-.097-.07-.234-.087-.438-.156-.073.252-.171.479-.2.717-.118.94-.205 1.885-.323 2.824-.108.854-.264 1.702-.592 2.507-.231.568-.329 1.142-.197 1.765.145.686.067 1.374-.168 2.038-.369 1.036-.407 2.098-.314 3.186.128 1.502.194 3.009.282 4.515.017.301.02.603.016.904-.016 1.587-1.039 2.45-2.607 2.196-1.14-.184-1.975-.802-2.539-1.801-.524-.927-.679-1.945-.754-2.981-.038-.515-.02-1.034-.027-1.55-.009-.475.022-.953-.038-1.421-.284-2.245-.092-4.467.237-6.693.297-2.001.496-4.017.793-6.017.258-1.746.615-3.478.884-5.222.228-1.489.398-2.988.585-4.483.255-2.057.718-4.068 1.294-6.058.097-.329.181-.667.228-1.006.057-.422-.258-.73-.7-.731-1.157-.001-2.304.751-2.735 1.837-.158.397-.233.827-.343 1.244-.153.581-.286 1.169-.46 1.746-.218.719-.767 1.131-1.432 1.391-.769.299-1.644-.025-1.955-.786-.49-1.197-.877-2.435-.951-3.739-.039-.696.107-1.369.408-2.006 1.215-2.57 3.181-4.132 6.037-4.483 1.41-.173 2.83-.274 4.235-.479.976-.142 1.933-.407 2.9-.61.332-.069.688-.21 1.001-.151.693.131 1.374.009 2.059.024 1.29.032 2.588.062 3.868.211 3.036.352 6.064.769 9.096 1.165 2.139.28 4.22.842 6.31 1.357 1.445.356 2.315 1.318 2.681 2.698.482 1.817.495 3.663.051 5.502-.167.691-.54 1.268-1.048 1.75-1.001.949-2.01 1.894-3.349 2.369-.082.028-.165.058-.235.106-1.089.767-2.209 1.479-3.407 2.069-.255.126-.488.377-.636.626-.345.585-.894.775-1.497.896-.591.119-1.187.219-1.771.362-.229.056-.435.207-.71.345.312.488.755.517 1.161.581 1.232.197 2.47.367 3.704.558 3.447.533 6.902 1.021 10.302 1.816 2.491.583 4.822 1.563 7.042 2.841 1.222.702 1.857 1.744 2.13 3.073.287 1.408.195 2.831.178 4.252-.006.429-.204.751-.555.962-.883.534-1.753 1.098-2.674 1.56-2.595 1.296-5.376 2.064-8.168 2.808-3.077.818-6.138 1.707-9.21 2.548-1.078.297-2.178.521-3.258.812-.914.245-1.836.482-2.716.821-1.518.585-2.791 1.521-3.746 2.863-.198.278-.405.564-.659.789-.678.603-1.501.633-2.252.112-1.081-.748-1.488-1.701-1.188-3.005.446-1.928 1.481-3.37 3.185-4.337.522-.297 1.075-.556 1.64-.755.58-.205 1.089-.444 1.486-.952.355-.457.925-.623 1.49-.691.902-.109 1.766-.356 2.633-.623.694-.214 1.428-.318 2.149-.421 1.116-.159 2.212-.382 3.22-.899 1.056-.544 2.186-.775 3.353-.863 1.693-.127 3.3-.528 4.831-1.299.841-.423 1.761-.691 2.65-1.016.567-.209 1.115-.439 1.509-.969zm-31.753-9.746c.295-.103.407-.106.438-.158.521-.858 1.344-1.286 2.232-1.655 1.548-.641 3.093-1.293 4.618-1.989 2.696-1.229 5.413-2.426 7.938-3.999.521-.325 1.082-.529 1.684-.612.568-.079 1.095-.278 1.532-.632.701-.565 1.394-1.149 2.037-1.779.54-.529.43-1.358-.188-1.789-.206-.144-.457-.245-.701-.309-.664-.171-1.333-.343-2.009-.458-1.948-.331-3.9-.644-5.853-.948-2.892-.45-5.796-.761-8.722-.862-.283-.01-.569.046-.916.077-.72 5.029-1.409 9.999-2.09 15.113z"/><path d="m80.724 95.13c-.679-.35-1.311-.711-1.973-1.01-2.477-1.115-5.011-2.046-7.667-2.683-2.215-.531-4.382-1.265-6.556-1.957-2.174-.693-4.326-1.452-6.493-2.17-1.191-.396-2.316-.914-3.366-1.615-.714-.478-1.497-.852-2.235-1.293-.665-.397-1.35-.775-1.958-1.248-1.65-1.283-2.583-2.968-2.688-5.082-.064-1.301.059-2.585.381-3.845.366-1.432 1.163-2.591 2.378-3.429.6-.415 1.239-.788 1.898-1.098 1.95-.917 3.954-1.705 6.004-2.368.287-.093.575-.205.871-.241 1.379-.169 2.664-.682 3.992-1.04 2.866-.772 5.745-1.51 8.641-2.164 3.317-.75 6.649-1.438 9.991-2.064 1.347-.251 2.737-.319 4.111-.373 1.376-.054 2.757.011 4.135.028 1.593.022 3.187.046 4.781.077.642.013 1.283.049 1.884.073.51.66.713 1.365.887 2.073.147.6.078 1.189-.191 1.763-.916 1.942-2.47 3.159-4.418 3.937-.159.063-.332.096-.502.121-.693.103-1.072-.168-1.15-.869-.043-.382.001-.773-.011-1.159-.022-.69-.308-1.039-.973-1.161-.295-.055-.6-.058-.901-.075-2.297-.145-4.559.107-6.8.598-2.86.625-5.727 1.219-8.579 1.876-3.188.734-6.363 1.525-9.543 2.293-1.297.313-2.6.606-3.889.953-1.842.494-3.553 1.296-5.187 2.278-.702.423-1.161 1.002-1.442 1.756-.235.633-.125 1.188.328 1.672.205.219.432.422.667.607 2.048 1.606 4.244 2.94 6.758 3.704.822.251 1.624.573 2.428.88 2.976 1.138 5.942 2.298 8.926 3.415.925.347 1.876.649 2.84.855 1.149.245 2.232.641 3.285 1.138 1.441.68 2.896 1.332 4.314 2.057.994.509 1.981 1.055 2.892 1.696 1.612 1.135 1.976 3.381.888 5.046-1.182 1.811-2.79 3.011-4.934 3.477-1.303.283-2.603.599-3.881.974-2.121.624-4.31.819-6.481 1.141-2.555.378-5.112.747-7.658 1.18-5.306.898-10.607 1.828-15.907 2.765-2.035.359-4.06.774-6.091 1.155-.761.143-1.524.288-2.293.378-1.249.145-2.455.453-3.634.874-1.216.435-2.439.855-3.63 1.354-.708.297-1.371.713-2.032 1.111-1.623.978-3.232 1.977-4.85 2.963-.22.134-.45.263-.69.35-1.197.426-2.282-.142-2.611-1.37-.088-.331-.127-.677-.183-1.018-.209-1.271.17-2.294 1.274-3.011.217-.141.422-.3.64-.438 2.11-1.34 4.263-2.604 6.511-3.705.973-.476 1.977-.831 3.026-1.097 1.627-.411 3.244-.867 4.854-1.341 1.529-.449 3.054-.853 4.654-1.016 2.269-.23 4.526-.582 6.783-.919 2.301-.343 4.596-.729 6.921-.848 1.73-.088 3.409-.455 5.09-.82 1.514-.328 3.021-.699 4.542-.994.928-.18 1.876-.25 2.815-.374.938-.125 1.889-.192 2.81-.394 2.481-.543 4.95-1.141 7.423-1.723.277-.064.616-.048.774-.606z"/><path d="m148.112 67.625c-.102 1.385-.455 1.786-1.656 1.898-.428.04-.861.032-1.292.042-5.6.119-11.2.229-16.799.366-1.031.025-2.074.079-3.084.268-1.456.271-2.91.323-4.374.241-.828-.047-1.624.044-2.42.277-2.107.619-4.214 1.236-6.337 1.794-1.27.334-2.254.981-3.001 2.07-1.293 1.886-2.62 3.746-3.3 5.966-.187.607-.443 1.217-.211 1.964.202-.023.403-.028.593-.074.544-.134 1.084-.277 1.624-.428 1.127-.313 2.274-.447 3.445-.475 1.463-.035 2.924-.142 4.387-.198 1.205-.048 2.413-.122 3.617-.085.941.029 1.894.141 2.812.345 1.061.235 2.12.349 3.2.361.688.008 1.382.003 2.064.081 1.254.142 1.933.967 1.962 2.301.027 1.219-.751 2.198-1.917 2.389-.253.041-.521.068-.772.033-1.261-.179-2.488.043-3.721.262-.548.098-1.107.154-1.664.18-.731.034-1.465.035-2.197.021-4.283-.078-8.499.514-12.699 1.265-.465.082-.923.208-1.378.337-.768.216-1.298.724-1.48 1.486-.361 1.509-.643 3.038-.522 4.603.108 1.401.819 2.451 2.055 3.079.602.306 1.288.527 1.957.605 1.88.223 3.77.421 5.661.499 3.572.149 7.148.193 10.722.309 1.263.041 2.488-.102 3.701-.447.411-.117.843-.22 1.267-.223 1.168-.009 1.856.712 1.807 1.874-.042.972-.384 1.852-.954 2.635-.366.505-.878.829-1.469 1.006-.411.123-.836.211-1.261.27-1.535.214-3.071.425-4.609.605-.811.094-1.628.168-2.444.178-1.292.015-2.585-.06-3.876-.047-1.852.017-3.703.081-5.554.116-.602.011-1.212.051-1.805-.026-1.834-.242-3.667-.506-5.492-.816-1.196-.203-2.322-.638-3.354-1.293-1.711-1.085-2.701-2.634-2.893-4.651-.085-.896-.1-1.805-.075-2.707.043-1.549.141-3.092-.112-4.64-.207-1.267.05-2.506.621-3.643.624-1.243.955-2.565 1.338-3.892.992-3.433 2.157-6.812 3.52-10.119.27-.655.696-1.179 1.238-1.625.832-.684 1.648-1.383 2.479-2.068 1.181-.972 2.518-1.672 3.982-2.079 1.949-.542 3.909-1.048 5.882-1.486 2.479-.549 4.977-1.016 7.469-1.507.335-.066.684-.088 1.027-.093 1.981-.03 3.964-.021 5.945-.082 1.789-.056 3.518.212 5.211.766.573.187 1.14.275 1.765.187.491-.068 1.046.021 1.521.188 1.601.562 3.274.73 4.928 1.007 1.316.22 2.64.389 3.959.595.328.048.65.157.963.235z"/><path d="m329.439 84.091c1.041.432 1.984.354 2.917.184.633-.115 1.264-.279 1.87-.495 1.472-.524 2.996-.771 4.535-.972 1.195-.155 2.381-.372 3.572-.562.169-.027.34-.069.511-.074 1.546-.047 3.092-.101 4.639-.12.335-.005.701.058 1.001.199.571.27 1.152.276 1.761.269 1.852-.022 3.704-.013 5.556-.012.301.001.605-.002.903.034.494.061.788.337.862.815.039.254.036.515.031.772-.04 1.828-.702 2.597-2.495 2.842-.681.092-1.372.128-2.06.156-.992.042-1.981.043-2.864.619-.201.132-.489.171-.739.18-.943.031-1.883.12-2.832-.004-1.552-.204-3.093.06-4.636.186-1.373.111-2.747.225-4.121.297-.565.03-1.124.044-1.637.299-1.091.539-2.267.803-3.436 1.094-.751.188-1.499.394-2.235.632-.365.117-.719.294-1.042.502-.387.251-.611.648-.486 1.108.141.519.095 1.017.05 1.533-.11 1.283.183 1.697 1.373 2.128.483.175.968.365 1.416.614.651.362 1.338.605 2.068.689 3.124.366 6.247.728 9.401.4 1.211-.126 2.405.106 3.597.281.724.106 1.444.242 2.163.378 1.978.375 3.945.209 5.913-.093 1.531-.235 3.068-.436 4.553-.904.075-.024.168.006.322.015.095.192.263.405.304.642.28 1.58-.117 2.989-1.17 4.201-.626.721-1.428 1.066-2.392 1.086-3.058.06-6.114.168-9.171.196-2.07.019-4.131.024-6.163.511-.712.171-1.42.187-2.142-.146-.668-.307-1.428-.329-2.162-.257-2.082.204-4.125-.118-6.171-.411-.469-.067-.938-.127-1.408-.188-2.6-.341-5.588-2.041-6.178-6.019-.4-2.7-.37-5.409-.144-8.119.086-1.029.222-2.056.393-3.074.169-1.017.357-2.035.633-3.026.65-2.329 1.056-4.705 1.395-7.091.147-1.036.5-1.872 1.364-2.521.431-.325.726-.838 1.063-1.279.128-.169.227-.368.303-.568.728-1.909 2.145-3.151 3.842-4.204 1.75-1.086 3.601-1.796 5.625-2.153 1.607-.285 3.199-.675 4.782-1.077 2.016-.512 4.073-.693 6.133-.85 1.674-.127 3.354-.185 5.031-.278 2.253-.127 4.478.078 6.665.621 2.464.609 4.921 1.251 7.377 1.895.582.152 1.144.375 1.717.56.667.213 1.072.69 1.358 1.298.228.484.188.827-.286 1.111-1.196.716-2.452 1.264-3.905.947-.376-.083-.732-.174-1.139-.103-1.641.283-3.265.152-4.848-.355-.718-.229-1.417-.303-2.148-.072-.997.314-1.953.208-2.854-.349-.486-.302-1.027-.458-1.598-.447-2.54.046-5.079.1-7.619.162-.564.014-1.091.157-1.601.438-.366.201-.803.33-1.221.37-1.555.151-3.044.562-4.518 1.051-1.103.366-2.197.76-3.312 1.084-.748.219-1.304.648-1.729 1.271-.339.498-.653 1.013-.973 1.523-.301.481-.641.938-1.167 1.179-1.016.463-1.417 1.349-1.62 2.345-.179.885-.287 1.785-.396 2.683-.144 1.196-.263 2.396-.383 3.596-.019.248.002.504.002.827z"/><path d="m189.393 108.513c-2.695-.299-5.394-.581-8.085-.915-.542-.066-1.083-.277-1.586-.508-.787-.361-1.587-.644-2.437-.828-2.565-.556-5.122-1.153-7.683-1.729-2.484-.56-4.884-1.382-7.251-2.31-2.976-1.165-5.844-2.531-8.466-4.385-.603-.427-1.188-.845-1.614-1.463-.322-.468-.735-.843-1.271-1.063-.316-.131-.619-.051-.766.263-.142.306-.259.639-.301.971-.161 1.282-.304 2.565-.422 3.852-.126 1.373-.209 2.748-.326 4.121-.037.427-.11.854-.188 1.276-.104.57-.41 1.036-.819 1.436-1.172 1.142-2.532 1.061-3.586-.187-.921-1.089-.938-2.368-.776-3.667.127-1.025.331-2.039.513-3.057.288-1.616.448-3.243.447-4.883 0-1.533.319-2.976.942-4.382.785-1.771 1.467-3.585 2.216-5.371.283-.674.59-1.343.951-1.978.853-1.497 1.68-3.004 2.361-4.59.203-.472.476-.92.766-1.345 1.56-2.272 3.128-4.538 4.707-6.798 1.14-1.63 2.522-3.046 3.914-4.461 1.629-1.655 3.547-2.152 5.785-1.783 1.354.224 2.41.856 3.199 1.973.984 1.391 1.677 2.918 2.027 4.574.23 1.092.342 2.211.437 3.324.077.911-.125 1.805-.453 2.655-1.14 2.95-2.622 5.71-4.611 8.182-.686.853-1.506 1.527-2.513 1.979-.346.155-.701.353-.965.615-.467.465-1.002.811-1.572 1.117-1.25.675-2.503 1.345-3.752 2.021-.303.164-.608.328-.888.524-.337.238-.333.606.003.859.24.181.502.333.758.49 3.157 1.949 6.455 3.626 9.868 5.078.594.253 1.194.504 1.815.67 2.169.582 4.239 1.429 6.311 2.279 2.39.98 4.79 1.932 7.311 2.54.582.141 1.137.396 1.703.602s1.125.433 1.697.62c.947.311 1.906.505 2.92.375.993-.128 1.87.285 2.67.793.8.509.663 1.68-.206 2.111-.627.312-1.303.439-2.004.415-.258-.008-.515-.042-.772-.064-.005.02-.007.036-.008.052zm-36.232-21.355c.906.043 1.682-.181 2.403-.558.723-.378 1.414-.817 2.102-1.256.835-.534 1.662-1.087 2.623-1.364.442-.128.741-.412 1.056-.707.563-.529 1.072-1.161 1.726-1.54 1.075-.624 1.739-1.539 2.182-2.623.419-1.031.7-2.119 1.056-3.177.312-.925.294-1.865.125-2.806-.138-.76-.318-1.514-.488-2.27-.047-.209-.108-.417-.189-.616-.318-.776-.925-1.012-1.658-.635-.227.117-.444.266-.637.434-.748.65-1.452 1.343-2.021 2.164-.857 1.237-1.714 2.476-2.599 3.693-2.421 3.334-4.125 7.04-5.678 10.827-.029.072-.003.167-.003.434z"/><path d="m517.635 104.113c-.504.07-.964.152-1.427.197-1.395.133-2.61-.913-2.946-2.214-.294-1.137-.133-2.228.411-3.253.303-.568.665-1.105 1.017-1.647 2.671-4.116 5.355-8.226 8.016-12.35 1.915-2.968 3.676-6.026 5.213-9.21 1.669-3.461 3.687-6.707 5.969-9.801 1.333-1.808 2.982-3.19 4.899-4.32 1.095-.645 2.19-.708 3.344-.299 1.09.387 1.939 1.086 2.583 2.051 1.383 2.07 2.26 4.337 2.715 6.782.32 1.714.414 3.42-.039 5.119-.154.58-.358 1.15-.592 1.704-.587 1.385-1.226 2.749-1.801 4.141-.42 1.017-.955 1.909-1.9 2.539-.422.281-.755.699-1.121 1.064-1.036 1.033-2.049 2.091-3.107 3.101-1.128 1.073-2.408 1.939-3.771 2.698-1.842 1.025-3.66 2.097-5.485 3.154-.255.148-.493.325-.854.564.377.155.634.285.904.368 5.099 1.577 10.243 2.987 15.401 4.349 3.451.911 6.885 1.896 10.324 2.854.331.091.664.193.972.341.482.231.673.698.528 1.185-.28.946-1.125 1.66-2.085 1.619-2.234-.098-4.485.059-6.702-.333-1.736-.307-3.462-.677-5.192-1.019-2.575-.509-5.153-.998-7.724-1.527-3.083-.636-6.083-1.534-8.999-2.741-1.385-.573-2.854-.957-4.304-1.358-.946-.261-1.36-.042-1.737.86-.302.723-.704 1.371-1.135 2.019-.331.498-.617 1.036-.847 1.589-.214.514-.324 1.067-.528 1.774zm25.16-31.925c.009-1.601-.646-4.033-1.269-5.061-.089-.146-.19-.287-.306-.414-.428-.47-1.072-.655-1.643-.39-.339.159-.662.411-.908.695-.307.353-.551.77-.78 1.182-1.694 3.05-3.576 5.983-5.494 8.896-.808 1.227-1.517 2.507-2.059 3.868-.562 1.41-1.401 2.637-2.258 3.875-.805 1.163-1.466 2.426-2.164 3.66-.091.158-.095.439-.016.604.128.264.43.236.69.206.084-.009.168-.037.249-.066 1.493-.554 2.965-1.132 4.258-2.114 2.811-2.137 5.578-4.319 8.065-6.84 2.321-2.351 3.383-5.232 3.635-8.101z"/><path d="m641.814 98.419c.067.438.14.818.183 1.203.12 1.084-.565 2.443-1.52 2.93-.251.128-.586.181-.867.145-1.095-.14-2.062-.592-2.89-1.326-.482-.426-.738-.966-.648-1.609.106-.765.259-1.522.411-2.279.076-.379.239-.741.292-1.121.233-1.684.752-3.28 1.549-4.769.773-1.439 1.611-2.848 2.487-4.227 1.085-1.709 2.244-3.371 3.363-5.058 1.41-2.129 2.561-4.382 3.3-6.84.447-1.485 1.064-2.907 1.74-4.308.392-.81.711-1.661.992-2.517.25-.759.66-1.391 1.178-1.98.928-1.061 2.909-.932 3.682.378.283.481.52.991.763 1.494.262.544.513 1.092.758 1.643.087.195.184.399.205.607.487 4.572 1.858 8.915 3.394 13.218.349.973.657 1.959.976 2.941.458 1.406 1.08 2.706 2.096 3.818.456.5.748 1.148 1.119 1.727.255.398.484.819.785 1.177.346.409.85.445 1.274.113.267-.209.509-.468.705-.746.273-.384.51-.797.732-1.214 2.572-4.835 4.845-9.804 6.7-14.96.597-1.66 1.206-3.317 1.806-4.978.675-1.868 1.493-3.67 2.5-5.382.838-1.424 1.859-2.693 3.195-3.688.45-.335.917-.633 1.494-.728 1.345-.222 2.292.488 2.424 1.835.081.827-.11 1.511-.849 2.019-1.438.992-2.328 2.395-2.872 4.032-.323.98-.639 1.965-.952 2.949-.953 2.994-1.899 5.989-2.859 8.982-.383 1.196-.903 2.329-1.681 3.327-.488.625-.736 1.349-.981 2.09-.459 1.389-.942 2.772-1.473 4.135-.532 1.373-1.253 2.647-2.273 3.729-.334.356-.534.747-.592 1.251-.123 1.054-.569 1.996-1.266 2.783-.942 1.063-1.938 2.079-2.921 3.105-.323.336-.749.416-1.196.343-.788-.129-1.48-.44-1.995-1.084-1.049-1.312-2.102-2.619-3.151-3.93-.026-.034-.048-.072-.071-.107-3.199-4.656-3.532-5.009-5.908-12.123-.6-1.796-1.207-3.591-1.848-5.372-.218-.604-.506-1.192-.833-1.744-.32-.541-.923-.498-1.247.047-.085.145-.155.311-.187.476-.186.995-.66 1.864-1.182 2.708-.771 1.249-1.454 2.527-1.865 3.954-.348 1.207-1.005 2.284-1.695 3.328-.666 1.006-1.357 1.994-2.051 2.98-.475.676-.848 1.395-1.094 2.185-.356 1.149-.887 2.247-1.022 3.461-.04.344-.08.684-.114.977z"/><path d="m626.695 92.268c.177.335.297.607.453.854 1.376 2.186 2.76 4.366 4.138 6.549.184.291.398.572.518.889.375.997-.33 2.175-1.38 2.122-1.697-.084-3.335-.436-4.416-1.979-.42-.599-.876-1.174-1.338-1.74-.791-.971-1.571-1.942-1.98-3.152-.055-.161-.133-.324-.235-.458-.647-.845-1.37-1.629-1.776-2.65-.174-.437-.646-.702-1.121-.808-.542-.122-1.099-.226-1.652-.24-1.333-.037-2.669-.003-4.005-.026-1.862-.032-3.692.201-5.503.623-1.469.344-2.95.571-4.458.691-2.073.165-4.062.712-5.98 1.521-.828.352-1.418.867-1.819 1.715-.4.846-.964 1.631-1.552 2.366-1.054 1.318-1.99 2.689-2.698 4.233-.409.892-1.008 1.697-1.529 2.537-.547.879-1.778 1.036-2.633.044-1.127-1.31-1.312-3.615-.419-5.229.797-1.438 1.776-2.747 2.797-4.024.44-.552.737-1.14.901-1.826.39-1.63 1.29-2.877 2.783-3.699 1.103-.607 2.027-1.453 2.888-2.365 1.092-1.159 2.208-2.301 3.243-3.509.837-.979 1.649-1.997 2.331-3.086 1.257-2.005 2.396-4.082 3.608-6.115 1.764-2.958 3.545-5.905 5.328-8.852.222-.367.464-.731.757-1.042.764-.809 1.892-.946 2.816-.32.383.261.726.612 1.007.983.337.442.621.933.869 1.434.324.653.654 1.316.871 2.011 1.36 4.361 3.305 8.5 4.825 12.799.287.811.55 1.631.779 2.458.303 1.087.979 1.639 2.108 1.761 1.969.212 3.931.474 5.892.752.85.121 1.696.294 2.524.519.845.229 1.408.802 1.632 1.672.104.404.032.754-.271 1.066-.729.747-1.592 1.153-2.645 1.152-1.291 0-2.583.01-3.875.016-.559.002-1.118.024-1.783.353zm-14.812-18.644c-.729.601-.974 1.393-1.214 2.166-.656 2.114-1.685 4.043-2.852 5.908-.775 1.24-1.546 2.484-2.306 3.732-.17.279-.29.588-.451.923.211.057.327.115.442.115 3.873.005 7.746.006 11.619.001.119 0 .239-.068.389-.112.113-.447-.048-.847-.189-1.247-.4-1.135-.734-2.301-1.228-3.396-.954-2.12-1.788-4.281-2.447-6.51-.254-.862-.78-1.412-1.763-1.58z"/><path d="m695.94 97.382c.088-1.781.521-3.493.996-5.195.267-.953.588-1.891.854-2.845.197-.704.415-1.414.497-2.137.165-1.426.593-2.776 1.049-4.12.625-1.835 1.271-3.662 1.924-5.486.673-1.877 1.031-3.819 1.265-5.792.131-1.111.293-2.22.462-3.327.051-.336.113-.695.273-.987.704-1.283.848-2.699 1.053-4.104.094-.639.175-1.281.312-1.912.364-1.683 1.328-2.202 2.949-1.586.398.151.771.384 1.128.621 1.113.738 2.21 1.5 3.317 2.247 1.25.844 2.488 1.705 3.761 2.513.98.621 2.008 1.168 3.011 1.754 1.041.608 2.096 1.196 3.112 1.843 1.209.771 2.255 1.726 3.068 2.922.189.28.445.52.688.76.244.243.519.455.764.696 1.587 1.562 2.118 3.428 1.461 5.558-.686 2.224-1.52 4.399-2.699 6.416-.39.665-.852 1.303-1.367 1.875-1.476 1.637-3.116 3.087-4.975 4.294-1.37.891-2.689 1.862-4.013 2.826-.975.709-1.912 1.471-2.877 2.195-1 .752-2.048 1.43-3.193 1.945-1.205.541-2.222 1.31-2.977 2.406-.147.212-.343.389-.497.595-.329.442-.774.665-1.307.747-1.063.165-2.131.313-3.19.503-2.597.466-4.492-1.761-4.772-3.55-.032-.213-.067-.427-.074-.642-.011-.345-.003-.688-.003-1.033zm14.482-7.513c.163-.081.347-.196.548-.27 1.111-.404 2.04-1.079 2.922-1.854 1.229-1.081 2.519-2.09 3.749-3.168.774-.68 1.529-1.392 2.221-2.153.821-.906 1.324-1.998 1.641-3.186.176-.66.128-1.266-.133-1.886-.56-1.329-1.344-2.501-2.404-3.479-1.117-1.032-2.396-1.815-3.779-2.445-.545-.248-1.079-.529-1.585-.851-1.235-.784-2.449-1.604-3.678-2.4-.324-.21-.658-.413-1.008-.576-.908-.425-1.34-.216-1.58.792-.109.457-.156.935-.178 1.405-.061 1.296-.259 2.568-.583 3.823-.462 1.791-.937 3.581-1.383 5.376-.771 3.089-1.582 6.171-2.268 9.278-.563 2.562-.938 5.166-1.67 7.693-.034.123-.052.253-.062.382-.036.445.372.761.757.562.419-.217.844-.443 1.218-.728 1.406-1.067 2.792-2.16 4.184-3.244.408-.317.798-.659 1.219-.956 1.2-.844 1.203-.838 1.852-2.115z"/><path d="m192.857 69.155c1.43.789 2.438 1.9 3.101 3.284.443.926.785 1.912 1.061 2.902.429 1.532.766 3.091 1.138 4.639.876 3.649 2.012 7.211 3.497 10.662.457 1.063.895 2.133 1.113 3.294.293 1.555 1.108 1.848 2.374.895 1.413-1.062 2.757-2.213 3.902-3.57 1.332-1.581 2.629-3.191 3.965-4.768.414-.489.906-.911 1.359-1.365.303-.305.614-.604.899-.925 3.638-4.084 7.263-8.181 10.915-12.253.746-.833 1.572-1.595 2.38-2.369.471-.451.855-.938 1.153-1.532.264-.526.672-.999 1.087-1.427.448-.461.978-.841 1.473-1.256.065-.056.137-.105.21-.151 1.137-.713 2.076-.287 2.171 1.057.042.583-.097 1.199-.26 1.771-.373 1.312-1.1 2.443-2.074 3.377-1.532 1.472-2.796 3.155-4.065 4.843-1.527 2.031-3.105 4.023-4.658 6.035-.263.341-.554.67-.756 1.046-.742 1.382-1.79 2.522-2.814 3.688-3.046 3.459-6.088 6.921-9.119 10.393-.627.72-1.31 1.351-2.107 1.887-1.143.768-2.228 1.622-3.353 2.417-.525.37-1.057.757-1.639 1.018-1.573.703-3.034.385-4.344-.668-.254-.205-.447-.524-.583-.829-.298-.667-.525-1.367-.813-2.039-.356-.828-.76-1.635-1.115-2.463-.237-.553-.489-1.111-.622-1.693-.213-.931-.558-1.805-.906-2.686-.573-1.448-.865-2.973-1.199-4.486-.194-.882-.369-1.77-.599-2.644-.286-1.087-.539-2.174-.482-3.309.029-.587-.167-1.108-.495-1.572-.346-.492-.727-.962-1.107-1.427-.3-.367-.633-.706-.932-1.072-.397-.485-.57-1.04-.553-1.676.027-1.032.014-2.066.011-3.101-.004-2.076.702-3.097 2.786-3.927z"/><path d="m577.753 75.237c-.153 1.019-.259 2.049-.471 3.056-.411 1.943-.715 3.888-.637 5.89.069 1.812-.22 3.606-.442 5.402-.206 1.668-.428 3.335-.362 5.021.02.517.044 1.035.119 1.545.158 1.076.148 2.15.013 3.222-.172 1.371-.227 2.745-.174 4.126.027.729.003 1.465-.046 2.193-.035.526-.343.841-.881.968-1.517.358-3.294-.047-3.781-2.146-.303-1.296-.491-2.622-.67-3.942-.106-.796-.228-1.58-.087-2.418.11-.645-.167-1.354-.268-2.035-.12-.811-.264-1.617-.344-2.431-.045-.464-.071-.963.046-1.406.426-1.599.482-3.238.569-4.866.18-3.402.578-6.781.914-10.166.166-1.672.318-3.344.48-5.016.044-.472.081-.944.155-1.411.098-.609.46-1.027 1.057-1.179.454-.116.929-.203 1.396-.218 1.146-.036 1.996.47 2.47 1.528.609 1.357.915 2.778.944 4.283z"/></g></svg>